<svg id="Layer_1" enable-background="new 0 0 512 512" height="512" viewBox="0 0 512 512" width="512" xmlns="http://www.w3.org/2000/svg"><path clip-rule="evenodd" d="m256 0c141.385 0 256 114.615 256 256s-114.615 256-256 256-256-114.615-256-256 114.615-256 256-256zm-117.792 418.5h.001 76.338c.001 0 .001-.001.001-.001v-121.389c0-22.867 18.585-41.453 41.451-41.453 22.864 0 41.451 18.587 41.451 41.453l.001 121.39 76.341-.001c0-.001 0-.001 0-.001v-162.841h29.769c4.395 0 9.641-1.034 12.893-4.232 1.127-1.108 2.046-2.598 2.046-4.223 0-1.629-.921-3.118-2.049-4.229l-147.562-145.249c-5.725-5.635-20.054-5.631-25.779.003l-147.564 145.246c-1.129 1.111-2.046 2.6-2.046 4.229 0 1.625.917 3.116 2.044 4.224 3.249 3.197 8.5 4.231 12.891 4.231h29.772z" fill-rule="evenodd"/></svg>